<?xml version="1.0" encoding="utf-8"?>
<!-- Generator: Adobe Illustrator 23.1.0, SVG Export Plug-In . SVG Version: 6.00 Build 0)  -->
<svg version="1.1" id="Layer_1" xmlns="http://www.w3.org/2000/svg" xmlns:xlink="http://www.w3.org/1999/xlink" x="0px" y="0px"
	 viewBox="0 0 24 24" style="enable-background:new 0 0 24 24;" xml:space="preserve">
<style type="text/css">
	.st0{fill:#111111;}
</style>
<path class="st0" d="M6.2,1.3L9,0l4,7.9l-2.7,1.3c-0.5,1.3,2.2,6.3,3.3,6.4c0.1-0.1,2.7-1.3,2.7-1.3l4.1,7.9c0,0-2.8,1.4-2.9,1.4
	C9.7,27.2-1.5,5.3,6.2,1.3z M8.1,2.6l-1,0.5c-5.3,2.8,4.2,21.2,9.6,18.7l1-0.5l-2.3-4.4l-1,0.5C11.2,19,6.1,9.2,9.3,7.5l1-0.5
	C10.4,7,8.1,2.6,8.1,2.6z"/>
</svg>
